<svg height="512pt" viewBox="-63 0 512 512.00033" width="512pt" xmlns="http://www.w3.org/2000/svg"><path d="m215.242188 39.09375c0 16.296875-13.210938 29.507812-29.507813 29.507812s-29.507813-13.210937-29.507813-29.507812 13.210938-29.507812 29.507813-29.507812 29.507813 13.210937 29.507813 29.507812zm0 0" fill="#e55045"/><path d="m185.734375 9.585938c-4.566406 0-8.890625 1.035156-12.75 2.886718 9.914063 4.757813 16.757813 14.890625 16.757813 26.621094s-6.84375 21.859375-16.757813 26.617188c3.859375 1.851562 8.183594 2.890624 12.75 2.890624 16.296875 0 29.507813-13.210937 29.507813-29.507812s-13.210938-29.507812-29.507813-29.507812zm0 0" fill="#c43730"/><path d="m46 264.957031c.273438-10.195312 10.246094-24.589843 19.726562-36.785156 19.160157-24.648437 56.195313-24.371094 76.898438-25.140625 37.910156-1.40625 91.964844-8.9375 163.035156-36.230469 4.914063 1.953125 28.179688 11.792969 37.710938 36.601563 1.035156 2.695312 9.648437 25.964844.179687 42.636718-15.449219 27.199219-68.519531 18.359376-165.4375 16.699219-51.195312-.875-101.777343.605469-132.113281 2.21875zm0 0" fill="#ff71bf"/><path d="m46.15625 263.09375c-.085938.632812-.140625 1.257812-.15625 1.863281 18.84375-1 45.507812-1.953125 75.273438-2.320312-26.332032-.34375-52.265626-.09375-75.117188.457031zm0 0" fill="#f75c9b"/><path d="m343.371094 203.402344c-9.53125-24.808594-32.796875-34.648438-37.710938-36.601563-10.773437 4.136719-21.148437 7.816407-31.144531 11.09375 7.109375 5.769531 14.453125 14.035157 18.863281 25.507813 1.035156 2.699218 9.648438 25.96875.175782 42.640625-7.019532 12.363281-21.816407 17.277343-44.964844 18.808593 52.910156 1.683594 83.785156.867188 94.960937-18.808593 9.46875-16.675781.855469-39.941407-.179687-42.640625zm0 0" fill="#f75c9b"/><path d="m74.234375 178.289062c-4.136719-5.242187-11.371094-16.046874-12.0625-30.613281-.980469-20.609375 11.796875-35.667969 16.121094-40.765625 34.363281-40.5 89.582031-15.902344 123.667969-51.574218 8.054687-8.429688 17.164062-22.566407 20.175781-47.433594.734375-6.066406 7.199219-9.585938 12.777343-7.09375 11.292969 5.046875 27.347657 15.152344 35.625 34.011718 8.457032 19.269532 4.191407 37.1875 1.292969 49.355469-1.792969 7.539063-9.28125 35.039063-34.523437 54.609375-5.457032 4.226563-10.027344 6.757813-35.347656 16.925782-72.171876 28.980468-92.519532 31.648437-112.574219 27.171874-6.503907-1.449218-11.71875-3.265624-15.152344-4.59375zm0 0" fill="#ff71bf"/><path d="m270.539062 34.816406c-8.277343-18.859375-24.332031-28.964844-35.625-34.007812-5.578124-2.492188-12.042968 1.027344-12.777343 7.089844-1.386719 11.464843-4.074219 20.644531-7.351563 28.039062 7.8125 18.84375 3.664063 36.304688.824219 48.234375-1.792969 7.539063-9.285156 35.042969-34.527344 54.609375-5.453125 4.230469-10.023437 6.761719-35.34375 16.929688-30.398437 12.203124-51.601562 19.742187-67.460937 24.042968 3.042968 1.039063 6.78125 2.164063 11.109375 3.128906 20.054687 4.476563 40.402343 1.808594 112.574219-27.171874 25.320312-10.167969 29.890624-12.699219 35.347656-16.925782 25.242187-19.570312 32.730468-47.070312 34.523437-54.613281 2.898438-12.164063 7.164063-30.082031-1.292969-49.355469zm0 0" fill="#f75c9b"/><path d="m47.792969 259.964844c-5.046875-5.503906-17.488281-20.582032-15.351563-38.960938.546875-4.699218 2.699219-15.210937 14.960938-27.277344 36.523437-35.945312 99.449218-23.359374 158.375-52.65625 17.296875-8.597656 41.929687-24.621093 66.054687-56.894531 4.375 1.667969 10.429688 4.589844 16.839844 9.40625 7.6875 5.773438 16.046875 14.515625 20.871094 27.191407.769531 2.027343 8.847656 24.027343.179687 42.640624-17.828125 38.265626-98.296875 44.742188-165.660156 50.160157-26.714844 2.148437-64.203125 3.628906-86.472656 30.496093-4.949219 5.972657-7.976563 11.792969-9.796875 15.894532zm0 0" fill="#ffd2ef"/><path d="m309.542969 120.773438c-4.824219-12.679688-13.183594-21.417969-20.871094-27.191407-6.410156-4.816406-12.464844-7.738281-16.839844-9.410156-6.445312 8.625-12.925781 16.074219-19.292969 22.546875 2.992188 4.03125 5.671876 8.6875 7.714844 14.054688.769532 2.027343 8.847656 24.023437.179688 42.640624-17.828125 38.265626-98.296875 44.738282-165.660156 50.160157-18.5625 1.492187-42.320313 2.671875-62.566407 12.257812.261719 16.164063 10.988281 29.121094 15.585938 34.132813 1.816406-4.101563 4.84375-9.921875 9.796875-15.894532 22.269531-26.871093 59.757812-28.347656 86.46875-30.496093 67.367187-5.421875 147.835937-11.894531 165.660156-50.160157 8.675781-18.613281.597656-40.613281-.175781-42.640624zm0 0" fill="#ffb9ef"/><path d="m371.371094 329.230469h-357.570313v-47.351563c0-13.265625 10.753907-24.023437 24.023438-24.023437h309.519531c13.269531 0 24.027344 10.757812 24.027344 24.023437zm0 0" fill="#876954"/><path d="m347.34375 257.855469h-57.527344c13.269532 0 24.023438 10.757812 24.023438 24.023437v47.351563h57.53125v-47.351563c0-13.265625-10.757813-24.023437-24.027344-24.023437zm0 0" fill="#705245"/><path d="m385.109375 288.578125-30.195313 193.007813c-2.730468 17.511718-17.808593 30.414062-35.535156 30.414062h-253.570312c-17.714844 0-32.792969-12.902344-35.53125-30.414062l-30.2187502-193.007813c-.5351558-3.441406 2.7109372-6.296875 6.0507812-5.308594 12.714844 3.773438 15.167969 17.375 31.824219 17.375 19.324218 0 19.324218-18.324219 38.65625-18.324219 19.324218 0 19.324218 18.324219 38.648437 18.324219 19.335938 0 19.335938-18.324219 38.660157-18.324219 19.332031 0 19.332031 18.324219 38.65625 18.324219 19.332031 0 19.332031-18.324219 38.65625-18.324219 19.335937 0 19.335937 18.324219 38.667968 18.324219 19.324219 0 19.324219-18.324219 38.660156-18.324219 19.332032 0 19.332032 18.324219 38.667969 18.324219 16.652344 0 19.117188-13.601562 31.855469-17.375 3.335938-.988281 6.585938 1.867188 6.046875 5.308594zm0 0" fill="#ffe170"/><g fill="#ff9a2d"><path d="m200.324219 512h-15.457031l-.03125-182.765625c-.011719-4.277344 3.453124-7.730469 7.71875-7.730469h.007812c4.269531 0 7.71875 3.453125 7.730469 7.71875zm0 0"/><path d="m146.980469 512h-15.480469l-8.359375-182.414062c-.195313-4.269532 3.105469-7.886719 7.371094-8.082032 4.265625-.195312 7.882812 3.101563 8.078125 7.371094l8.378906 182.773438c0 .113281.011719.238281.011719.351562zm0 0"/><path d="m93.617188 512h-15.492188l-17.414062-185.949219c-.394532-4.246093 2.730468-8.019531 6.976562-8.421875 4.234375-.402344 8.015625 2.730469 8.417969 6.976563l17.480469 186.671875c.019531.238281.03125.484375.03125.722656zm0 0"/><path d="m262.054688 329.585938-8.355469 182.414062h-15.480469c0-.125 0-.226562.007812-.351562l8.382813-182.773438c.195313-4.269531 3.820313-7.554688 8.078125-7.371094 4.257812.195313 7.554688 3.8125 7.367188 8.082032zm0 0"/><path d="m324.121094 329.945312-17.046875 182.054688h-15.492188c0-.238281.011719-.484375.03125-.71875l17.109375-182.769531c.402344-4.253907 4.164063-7.378907 8.417969-6.976563 4.246094.390625 7.371094 4.164063 6.980469 8.410156zm0 0"/></g></svg>