<svg id="Capa_1" enable-background="new 0 0 500.248 500.248" height="512" viewBox="0 0 500.248 500.248" width="512" xmlns="http://www.w3.org/2000/svg"><g><g id="XMLID_220_"><g><path d="m363.038 194.066-13.15 32.5-90.02 267.36c-2.84 8.43-14.76 8.43-17.6 0l-90.02-267.36-11.52-32.5z" fill="#fddeb0"/></g></g><path d="m186.98 194.066h-10.777-35.475l11.52 32.5 90.02 267.36c2.84 8.43 14.76 8.43 17.6 0l14.16-42.055-70.962-210.757c-1.276-3.79 2.62-7.422 6.218-5.676.026.013.052.025.078.038l6.828 3.388c10.153 5.037 21.561 7.7 32.989 7.7h.001c11.43 0 22.836-2.663 32.988-7.699l6.828-3.388c2.954-1.466 6.458-1.353 9.287.342 11.479 6.879 24.47 10.48 38.003 10.48 2.365 0 4.725-.118 7.072-.344l6.529-19.39 13.15-32.5h-176.057z" fill="#fdd79b"/><path d="m363.038 194.066-13.15 32.5-2.9 8.61-168.27 70.01-13.87-41.198 89.98-37.422 87.48-32.5z" fill="#fccd7f"/><g fill="#fbc56d"><path d="m218.996 288.428-13.869-41.192-40.279 16.752 1.068 3.172 12.803 38.025z"/><path d="m220.523 240.833c9.014 3.757 18.827 5.732 28.657 5.732h.001c11.43 0 22.836-2.663 32.988-7.699l6.828-3.388c2.954-1.466 6.458-1.353 9.287.342 7.684 4.605 16.048 7.733 24.797 9.303l23.907-9.947 2.9-8.61 13.15-32.5h-20.73l-87.48 32.5z"/></g><path d="m363.042 111.974c0-61.841-50.132-111.974-111.974-111.974-61.842 0-111.974 50.133-111.974 111.974v82.087h223.949v-82.087z" fill="#fec0dd"/><path d="m280.122 3.806c-9.262-2.48-19.01-3.806-29.054-3.806-61.842 0-111.974 50.133-111.974 111.974v82.087h58.077v-82.087c-.001-51.797 35.189-95.377 82.951-108.168z" fill="#fea3ce"/><g><path d="m137.527 142.883c-6.614.073-13.022 3.529-16.582 9.665-5.373 9.264-2.218 21.132 7.046 26.505l1.15.667 27.294 20.279h196.669l19.891-20.279 1.149-.666c9.264-5.374 12.419-17.241 7.046-26.505-3.358-5.791-9.253-9.195-15.464-9.621z" fill="#fea3ce"/><path d="m228.952 196.103-27.294-20.279-1.15-.667c-9.264-5.374-12.419-17.241-7.046-26.505 1.342-2.313 3.089-4.244 5.098-5.758l-61.033-.012c-6.614.073-13.022 3.529-16.582 9.665-5.373 9.264-2.219 21.132 7.046 26.505l1.15.667 27.294 20.279h196.669l3.821-3.896h-127.973z" fill="#fe7ab6"/><g><path d="m249.18 226.564c-8.278 0-16.554-1.871-24.1-5.616l-14.253-7.072c-5.265-2.613-11.452-2.039-16.147 1.496-17.449 13.138-40.93 14.545-59.821 3.587l-8.755-5.077c-9.264-5.374-12.419-17.241-7.046-26.505 5.374-9.264 17.242-12.419 26.506-7.046l8.755 5.078c5.378 3.119 12.064 2.72 17.031-1.021 16.492-12.416 38.221-14.431 56.715-5.256l14.254 7.072c4.298 2.132 9.427 2.131 13.723 0l14.255-7.073c18.49-9.176 40.223-7.161 56.715 5.257 4.968 3.74 11.652 4.141 17.031 1.021l8.755-5.078c9.265-5.372 21.132-2.22 26.506 7.046 5.373 9.264 2.219 21.132-7.046 26.505l-8.755 5.077c-18.891 10.958-42.373 9.551-59.821-3.587-4.696-3.535-10.882-4.109-16.147-1.496l-14.254 7.072c-7.545 3.744-15.825 5.616-24.101 5.616z" fill="#fec0dd"/></g><g><path d="m194.542 180.708c1.2-2.771 2.726-5.13 4.474-7.049-9.827.9-19.404 4.509-27.667 10.729-4.967 3.741-11.653 4.14-17.031 1.021l-8.755-5.078c-9.263-5.372-21.132-2.218-26.505 7.046s-2.219 21.132 7.046 26.505l8.755 5.077c18.891 10.958 42.371 9.551 59.821-3.587 1.199-.903 2.496-1.61 3.85-2.123-6.834-8.012-8.716-21.623-3.988-32.541z" fill="#fea3ce"/></g><g id="XMLID_221_"><g fill="#fccd7f"><path d="m291.835 398.983-31.967 94.943c-2.84 8.43-14.76 8.43-17.6 0l-21.95-65.19z"/><path d="m328.608 289.767-18.39 54.619-103.76 43.17-13.876-41.198z"/></g></g><g><path d="m249.187 48.882c-2.688 0-5.285-1.447-6.632-3.987l-3.646-6.872c-1.941-3.659-.549-8.199 3.11-10.14 3.661-1.942 8.199-.547 10.14 3.11l3.646 6.872c1.941 3.659.549 8.199-3.11 10.141-1.12.595-2.323.876-3.508.876z" fill="#fee97d"/></g><g><path d="m222.908 87.079c-1.978 0-3.952-.778-5.426-2.321l-4.244-4.446c-2.86-2.997-2.75-7.744.246-10.604 2.995-2.859 7.742-2.75 10.604.247l4.244 4.446c2.86 2.997 2.75 7.744-.246 10.604-1.453 1.385-3.317 2.074-5.178 2.074z" fill="#fee97d"/></g><g><path d="m175.668 105.269c-1.508 0-3.031-.454-4.353-1.397-3.37-2.407-4.151-7.091-1.744-10.462l4.042-5.659c2.407-3.37 7.091-4.153 10.463-1.744 3.37 2.407 4.151 7.091 1.744 10.462l-4.042 5.659c-1.463 2.049-3.769 3.141-6.11 3.141z" fill="#fee97d"/></g><g><path d="m260.587 102.44c-3.523 0-6.665-2.494-7.356-6.082-.784-4.067 1.878-8 5.945-8.784l8.392-1.617c4.068-.786 8 1.878 8.783 5.945.784 4.067-1.878 8-5.945 8.784l-8.392 1.617c-.478.093-.957.137-1.427.137z" fill="#fee97d"/></g><g><path d="m311.313 87.888c-2.343 0-4.649-1.094-6.113-3.146l-4.323-6.063c-2.405-3.373-1.62-8.056 1.752-10.461 3.374-2.406 8.057-1.619 10.461 1.752l4.323 6.063c2.405 3.373 1.62 8.056-1.752 10.461-1.321.941-2.842 1.394-4.348 1.394z" fill="#fee97d"/></g></g><g fill="#fbc56d"><path d="m259.868 493.926 14.16-42.055-13.432-39.892-40.278 16.757 21.95 65.19c2.84 8.43 14.76 8.43 17.6 0z"/><path d="m232.859 329.601-40.277 16.757 13.876 41.198 40.273-16.756z"/></g></g></svg>