<svg id="Capa_1" enable-background="new 0 0 497.618 497.618" height="512" viewBox="0 0 497.618 497.618" width="512" xmlns="http://www.w3.org/2000/svg"><g><g><path d="m211.256 310.093-31.392 31.392-72.718 72.718-78.697 78.697c-6.291 6.291-16.491 6.291-22.782 0s-6.291-16.491 0-22.782l78.697-78.697 72.718-72.718 31.221-31.221 60.331-60.331 19.047 18.744z" fill="#efedef"/></g><g id="XMLID_152_"><g><path d="m459.728 67.3c23.14 29.65 36.94 66.95 36.94 107.48 0 7.3-.45 14.5-1.32 21.57l-.91-.11c-8.84-6.62-18.17-12.29-27.84-17.01.05-1.48.07-2.96.07-4.45 0-38.32-14.97-73.21-39.36-99.14 10.09-3.45 20.59-6 31.42-7.56z" fill="#efedef"/><path d="m458.728 68.08c-10.83 1.56-21.33 4.11-31.42 7.56-25.53-27.13-61.39-44.44-101.23-45.58 4.67-9.49 10.26-18.66 16.77-27.35l.17-1.44c47.31 5.7 88.8 30.3 116.71 66.03z" fill="#ea596c"/><path d="m429.078 312.11c-1.6-11.08-4.24-21.83-7.82-32.13 26.94-25.46 44.14-61.13 45.34-100.75 9.67 4.72 19 10.39 27.84 17.01l.91.11c-5.8 47.1-30.33 88.4-65.92 116.21z" fill="#ea596c"/><path d="m321.888 0c7.15 0 14.2.43 21.13 1.27l-.17 1.44c-6.51 8.69-12.1 17.86-16.77 27.35-1.39-.04-2.79-.06-4.19-.06-38.57 0-73.67 15.16-99.64 39.83-3.45-10.08-6-20.58-7.56-31.4l-.83-1.05c29.74-23.42 67.26-37.38 108.03-37.38z" fill="#efedef"/><g fill="#f9f7f8"><path d="m326.078 30.06c-1.39-.04-2.79-.06-4.19-.06-38.57 0-73.67 15.16-99.64 39.83 16.36 47.93 52.98 86.47 99.63 105.44-19.6-46.47-18.2-99.7 4.2-145.21z"/><path d="m177.148 171.31c-.03 1.15-.04 2.31-.04 3.47 0 38.68 15.26 73.88 40.06 99.88 47.59-16.49 85.84-52.97 104.71-99.39-46.31 19.54-99.33 18.22-144.73-3.96z"/><path d="m466.598 179.23c.05-1.48.07-2.96.07-4.45 0-38.32-14.97-73.21-39.36-99.14-47.92 16.37-86.46 52.98-105.43 99.63 46.3-19.53 99.32-18.22 144.72 3.96z"/><path d="m321.878 175.27c19.47 46.14 18.23 98.95-3.72 144.24 1.24.03 2.48.05 3.73.05 38.44 0 73.42-15.06 99.37-39.58-16.48-47.59-52.96-85.84-99.38-104.71z"/></g><path d="m281.213 296.23c-24.8-26-40.06-61.2-40.06-99.88 0-1.16.01-2.32.04-3.47.94-39.88 18.09-75.82 45.1-101.48 25.97-24.67 61.07-39.83 99.64-39.83 1.4 0 2.8.02 4.19.06 2.898.083 5.773.262 8.627.513-21.181-13.322-46.034-21.321-72.672-22.083-1.39-.04-2.79-.06-4.19-.06-38.57 0-73.67 15.16-99.64 39.83-27.01 25.66-44.16 61.6-45.1 101.48-.03 1.15-.04 2.31-.04 3.47 0 38.68 15.26 73.88 40.06 99.88 23.61 24.745 55.878 41.147 91.892 44.323-10.205-6.42-19.561-14.069-27.847-22.753z" fill="#e5e1e5"/><g fill="#ef7483"><path d="m321.878 175.27c46.3-19.53 99.32-18.22 144.72 3.96-1.2 39.62-18.4 75.29-45.34 100.75-16.48-47.59-52.96-85.84-99.38-104.71z"/><path d="m217.168 274.66c47.59-16.49 85.84-52.97 104.71-99.39 19.47 46.14 18.23 98.95-3.72 144.24h-.01c-39.66-1.01-75.4-18.04-100.98-44.85z"/><path d="m321.878 175.27c-19.6-46.47-18.2-99.7 4.2-145.21 39.84 1.14 75.7 18.45 101.23 45.58-47.92 16.37-86.46 52.98-105.43 99.63z"/><path d="m222.248 69.83c16.36 47.93 52.98 86.47 99.63 105.44-46.31 19.54-99.33 18.22-144.73-3.96.94-39.88 18.09-75.82 45.1-101.48z"/></g><path d="m300.918 347.83c6.72-8.99 12.47-18.47 17.23-28.32h.01c1.24.03 2.48.05 3.73.05 38.44 0 73.42-15.06 99.37-39.58 3.58 10.3 6.22 21.05 7.82 32.13l.35.45c-29.65 23.19-66.98 37-107.54 37-7.12 0-14.14-.43-21.03-1.25z" fill="#efedef"/><path d="m222.248 69.83c-27.01 25.66-44.16 61.6-45.1 101.48-9.67-4.72-18.98-10.39-27.82-17l-1.02-.12c5.55-47.29 29.98-88.81 65.55-116.81l.83 1.05c1.56 10.82 4.11 21.32 7.56 31.4z" fill="#ea596c"/><path d="m217.168 274.66c-10.3 3.57-21.05 6.2-32.13 7.8l-.51.41c-23.44-29.74-37.42-67.28-37.42-108.09 0-6.97.41-13.84 1.2-20.59l1.02.12c8.84 6.61 18.15 12.28 27.82 17-.03 1.15-.04 2.31-.04 3.47 0 38.68 15.26 73.88 40.06 99.88z" fill="#efedef"/><path d="m185.038 282.46c11.08-1.6 21.83-4.23 32.13-7.8 25.58 26.81 61.32 43.84 100.98 44.85-4.76 9.85-10.51 19.33-17.23 28.32l-.06.48c-47.09-5.65-88.41-30.01-116.33-65.44z" fill="#ea596c"/></g><g fill="#e43e54"><path d="m390.123 51.63c2.898.083 5.773.262 8.627.513-21.181-13.322-46.034-21.321-72.672-22.083-6.622 13.454-11.394 27.586-14.345 42.015 21.712-13.011 47.097-20.505 74.2-20.505 1.4 0 2.8.02 4.19.06z"/><path d="m257.383 129.795c-15.434-17.25-27.495-37.583-35.135-59.965-27.01 25.66-44.16 61.6-45.1 101.48 20.309 9.922 42.143 15.656 64.218 17.23 1.126-21.085 6.784-40.985 16.017-58.745z"/><path d="m281.213 296.23c-11.027-11.56-20.161-24.942-26.913-39.637-11.522 7.408-23.968 13.505-37.132 18.067 23.61 24.745 55.896 41.161 91.91 44.336l-.018-.013c-10.205-6.42-19.561-14.069-27.847-22.753z"/></g></g><path d="m179.864 341.485 14.473-14.473c-4.664-3.194-9.801-5.743-15.288-7.494-1.751-5.487-4.3-10.623-7.494-15.288l-14.474 14.474-72.718 72.718-19.527 19.528c2.113 11.547 11.235 20.669 22.782 22.782l19.529-19.529z" fill="#d7d0d6"/><path d="m200.055 375.48c0-21.23-17.087-38.461-38.258-38.711-.25-21.171-17.48-38.258-38.71-38.258-21.226 0-38.454 17.081-38.71 38.246h-.012v.476 68.599c0 4.623 3.747 8.37 8.37 8.37h68.599.476v-.012c21.164-.256 38.245-17.484 38.245-38.71z" fill="#ef7483"/><g><path d="m114.005 354.938v-.476h.012c.256-21.165 17.484-38.246 38.71-38.247.992 0 1.972.049 2.946.123-6.884-10.719-18.9-17.827-32.586-17.827-21.226 0-38.454 17.081-38.71 38.247h-.012v.476 68.599c0 4.623 3.747 8.37 8.37 8.37h21.271v-59.265z" fill="#ea596c"/></g></g></svg>